<?xml version="1.0" standalone="no"?>
<!DOCTYPE svg PUBLIC "-//W3C//DTD SVG 20010904//EN"
 "http://www.w3.org/TR/2001/REC-SVG-20010904/DTD/svg10.dtd">
<svg version="1.0" xmlns="http://www.w3.org/2000/svg"
 width="1600.000000pt" height="947.000000pt" viewBox="0 0 1600.000000 947.000000"
 preserveAspectRatio="xMidYMid meet">
<metadata>
Created by potrace 1.16, written by Peter Selinger 2001-2019
</metadata>
<g transform="translate(0.000000,947.000000) scale(0.100000,-0.100000)"
fill="#000000" stroke="none">
<path d="M6243 8756 c-24 -8 -64 -28 -90 -45 -49 -31 -1777 -1765 -1839 -1844
-44 -57 -64 -116 -64 -191 0 -81 13 -124 58 -190 20 -30 287 -306 592 -614
305 -307 693 -699 862 -870 340 -345 388 -388 471 -421 48 -20 70 -23 135 -19
128 7 232 77 287 193 47 99 45 190 -7 303 -22 47 -51 77 -1201 1236 -202 203
-367 372 -367 376 0 4 345 354 768 779 609 613 773 784 797 829 28 51 30 64
30 156 0 90 -3 107 -27 151 -33 63 -87 115 -158 151 -44 23 -70 29 -130 31
-43 2 -93 -3 -117 -11z"/>
<path d="M9599 8747 c-138 -58 -208 -152 -217 -290 -5 -85 10 -148 52 -212 18
-28 369 -388 780 -800 411 -413 752 -758 757 -767 8 -15 -107 -135 -693 -723
-867 -870 -837 -839 -872 -910 -25 -51 -29 -70 -29 -144 -1 -77 3 -92 31 -148
46 -91 108 -144 204 -178 58 -20 157 -19 210 2 104 41 45 -16 1347 1302 310
314 575 590 590 613 40 63 51 103 51 180 0 72 -24 146 -63 198 -10 14 -421
431 -913 927 -1007 1015 -948 963 -1102 970 -64 3 -87 0 -133 -20z"/>
<path d="M8338 8421 c-75 -30 -122 -74 -161 -150 -19 -37 -38 -84 -42 -102 -4
-19 -14 -50 -23 -69 -37 -88 -52 -137 -46 -153 2 -7 30 -22 62 -32 31 -10 91
-31 132 -46 99 -37 363 -131 520 -185 68 -24 127 -40 131 -36 4 4 17 36 29 72
12 36 26 74 31 85 34 80 69 204 69 243 0 59 -39 146 -85 189 -52 49 -80 62
-359 158 -142 49 -186 54 -258 26z"/>
<path d="M7912 7543 c-5 -10 -38 -97 -72 -193 -34 -96 -66 -184 -70 -195 -5
-11 -18 -46 -29 -77 -12 -32 -30 -82 -40 -110 -11 -29 -33 -92 -50 -140 -16
-48 -34 -95 -39 -105 -5 -10 -15 -36 -22 -58 -15 -50 -88 -250 -105 -290 -24
-54 -85 -238 -85 -254 0 -15 88 -49 679 -260 79 -29 150 -51 159 -49 8 2 21
21 29 43 8 22 24 65 35 95 11 30 24 64 28 75 5 11 19 52 32 90 12 39 25 72 29
75 3 3 8 16 11 30 6 24 35 108 98 280 17 47 38 105 46 130 8 25 19 54 24 65 5
11 23 61 40 110 17 50 35 99 40 110 13 27 60 155 66 180 3 11 9 29 14 40 17
41 30 89 30 110 0 17 -10 26 -47 39 -27 10 -57 22 -68 26 -11 5 -48 18 -82 29
-33 12 -74 26 -90 32 -60 24 -69 28 -113 42 -25 8 -103 36 -175 62 -267 96
-260 94 -273 68z"/>
<path d="M7064 5204 c-13 -30 -24 -58 -24 -62 0 -4 -13 -41 -30 -82 -24 -62
-29 -90 -30 -160 0 -160 54 -218 280 -300 47 -17 123 -45 170 -62 165 -60 289
-34 370 77 39 53 46 69 79 155 35 95 53 158 49 175 -3 16 -23 24 -243 99 -22
8 -85 31 -140 51 -113 42 -287 104 -388 140 l-69 24 -24 -55z"/>
<path d="M4925 3815 c-5 -2 -28 -9 -51 -14 -65 -17 -158 -83 -205 -147 -51
-69 -76 -131 -84 -210 -10 -101 -12 -756 -2 -819 22 -140 133 -288 248 -332
147 -55 202 -56 316 -7 17 8 34 14 37 14 18 0 106 75 138 118 67 87 88 148 95
267 l6 105 -125 0 -125 0 -5 -77 c-5 -79 -17 -113 -53 -149 -76 -76 -171 -72
-244 11 -16 19 -33 49 -36 67 -3 18 -5 209 -3 423 l3 390 24 38 c41 66 137 95
204 61 74 -38 99 -80 106 -184 l6 -75 120 0 120 0 -3 95 c-4 133 -39 221 -122
306 -78 80 -184 125 -294 123 -34 0 -65 -2 -71 -4z"/>
<path d="M5880 3806 c-98 -28 -173 -83 -233 -173 -78 -117 -78 -120 -75 -619
l3 -439 33 -67 c87 -174 280 -283 443 -249 97 20 161 53 227 119 79 79 119
162 129 268 5 43 6 252 3 464 -5 381 -5 386 -29 440 -92 206 -298 312 -501
256z m179 -254 c19 -9 48 -34 65 -55 l31 -39 0 -417 0 -418 -29 -37 c-39 -51
-82 -76 -134 -76 -68 0 -120 35 -156 107 -14 28 -16 83 -16 423 0 419 1 432
51 476 61 54 126 67 188 36z"/>
<path d="M8375 3806 c-150 -48 -266 -168 -301 -313 -17 -75 -20 -814 -3 -895
15 -69 60 -155 107 -204 38 -40 105 -94 117 -94 4 0 21 -6 38 -14 115 -50 203
-46 332 14 99 46 196 164 223 270 12 50 14 101 13 338 l-1 162 -189 0 c-104 0
-196 -3 -205 -6 -13 -5 -16 -25 -16 -114 0 -60 3 -115 6 -124 5 -12 21 -16 74
-16 86 0 95 -10 87 -88 -13 -114 -31 -149 -102 -193 -66 -41 -167 -11 -214 64
-20 34 -21 44 -21 442 l0 408 25 43 c27 46 90 84 139 84 33 0 94 -30 123 -62
24 -26 57 -141 49 -171 -11 -43 0 -47 124 -47 85 0 119 3 122 13 11 27 -3 166
-22 227 -32 103 -110 194 -215 251 -69 37 -212 50 -290 25z"/>
<path d="M9361 3804 c-116 -31 -226 -132 -279 -256 l-27 -63 0 -455 0 -455 32
-62 c67 -128 185 -222 315 -252 68 -16 107 -14 179 10 94 31 114 44 187 118
50 50 75 85 97 136 l29 70 1 400 c0 220 -3 427 -8 460 -32 249 -281 415 -526
349z m191 -256 c23 -13 51 -41 64 -64 l25 -42 -3 -415 -3 -416 -35 -36 c-19
-20 -47 -43 -62 -51 -33 -17 -101 -18 -131 -3 -32 17 -86 80 -95 109 -4 14 -7
203 -7 420 0 348 2 399 17 425 47 87 148 119 230 73z"/>
<path d="M10650 3806 c-106 -30 -203 -110 -254 -211 -53 -104 -56 -137 -56
-565 0 -388 3 -434 34 -505 8 -16 15 -35 17 -41 15 -44 128 -157 179 -180 19
-8 42 -19 51 -24 9 -5 44 -14 78 -21 71 -15 148 -3 238 36 65 29 157 119 196
192 34 64 61 199 52 259 l-6 43 -107 3 c-59 2 -114 0 -123 -4 -13 -6 -18 -25
-20 -87 -4 -71 -7 -83 -35 -118 -85 -106 -220 -94 -284 27 -17 31 -24 734 -8
818 25 137 172 188 271 94 44 -42 52 -61 57 -147 l5 -80 119 -3 c71 -2 122 1
125 7 13 20 -7 197 -28 251 -27 72 -98 159 -164 203 -92 61 -230 82 -337 53z"/>
<path d="M11625 3797 c-114 -43 -190 -111 -247 -222 -14 -27 -28 -68 -31 -90
-10 -66 -9 -878 1 -910 63 -207 285 -355 472 -317 140 29 251 116 316 247 l39
79 0 450 0 451 -28 65 c-33 80 -86 146 -152 193 -78 54 -121 69 -220 73 -76 4
-99 1 -150 -19z m204 -247 c48 -24 78 -60 91 -111 7 -25 10 -179 8 -421 l-3
-383 -27 -42 c-32 -49 -91 -83 -143 -83 -42 0 -69 12 -108 49 -56 51 -57 59
-57 482 0 454 0 451 84 499 60 35 102 38 155 10z"/>
<path d="M2660 3801 c-24 -7 -25 -10 -28 -106 -4 -155 -16 -144 146 -147 l137
-3 5 -627 c3 -431 8 -630 16 -638 7 -7 51 -10 119 -8 l109 3 8 35 c5 19 5 301
2 625 -6 508 -5 592 8 602 9 8 63 13 149 15 l134 3 3 123 3 122 -364 0 c-201
0 -377 2 -393 4 -16 3 -40 1 -54 -3z"/>
<path d="M3630 3801 l-55 -6 0 -610 0 -610 35 -69 c88 -175 278 -281 440 -248
125 26 199 72 274 173 87 115 86 107 86 774 0 454 -3 586 -12 591 -13 8 -227
9 -234 1 -3 -2 -4 -259 -4 -571 0 -611 0 -607 -53 -664 -48 -51 -128 -68 -185
-38 -40 21 -81 68 -92 106 -6 20 -10 262 -10 594 1 308 -3 563 -8 568 -11 11
-117 17 -182 9z"/>
<path d="M6624 3800 c-17 -7 -22 -20 -27 -71 -10 -91 -8 -1432 2 -1447 6 -10
55 -12 232 -9 123 2 243 8 266 14 148 36 269 151 323 308 19 54 20 84 20 450
0 366 -1 396 -20 450 -30 86 -63 137 -127 194 -63 56 -123 89 -187 103 -56 12
-456 19 -482 8z m447 -265 c46 -17 96 -65 107 -105 9 -33 9 -738 0 -770 -11
-37 -57 -84 -105 -109 -34 -17 -60 -21 -133 -21 -79 0 -90 2 -91 18 -3 57 4
988 8 994 8 14 169 9 214 -7z"/>
<path d="M12409 3803 c-33 -4 -37 -7 -43 -41 -8 -48 -8 -1455 0 -1476 5 -13
25 -16 119 -16 63 0 116 4 120 9 3 6 6 251 6 547 0 295 3 543 6 550 3 8 9 14
14 14 7 0 95 -122 144 -201 39 -62 62 -89 75 -87 15 3 28 20 141 186 38 56 73
102 78 102 17 0 20 -65 21 -579 0 -288 3 -528 6 -532 3 -5 56 -9 119 -9 92 0
114 3 119 15 7 18 -4 1508 -11 1515 -7 8 -225 6 -254 -2 -15 -4 -29 -16 -33
-25 -5 -16 -101 -161 -153 -231 -30 -42 -52 -25 -144 111 -47 71 -90 132 -95
137 -11 9 -183 19 -235 13z"/>
<path d="M7628 3178 c-2 -343 -1 -686 2 -763 l5 -140 117 -3 c115 -3 118 -2
123 20 3 13 4 356 3 763 l-3 740 -122 3 -122 3 -3 -623z"/>
<path d="M9952 2518 c-8 -8 -12 -45 -12 -107 0 -151 -9 -141 131 -141 140 0
131 -11 127 150 l-3 105 -115 3 c-81 2 -119 -1 -128 -10z"/>
<path d="M11047 2000 c-9 -11 -17 -27 -17 -35 0 -8 -3 -15 -7 -15 -5 0 -19
-16 -32 -35 -13 -20 -26 -34 -28 -32 -7 7 -144 -29 -146 -39 -1 -5 27 -10 63
-12 97 -5 137 -17 142 -46 3 -13 4 -182 4 -375 l-1 -352 30 -8 c40 -11 73 16
56 46 -5 11 -7 24 -3 29 4 5 5 74 2 154 -3 80 -4 279 -2 443 l3 297 -23 0
c-13 0 -31 -9 -41 -20z"/>
<path d="M4945 2000 c-3 -5 -15 -10 -26 -10 -11 0 -17 -4 -14 -10 3 -5 -1 -10
-9 -10 -9 0 -16 -4 -16 -9 0 -5 -7 -8 -16 -7 -10 0 -26 -16 -40 -43 -21 -39
-24 -57 -24 -163 0 -72 4 -118 10 -118 6 0 9 -3 8 -7 -4 -22 31 -73 51 -73 6
0 11 -4 11 -10 0 -5 11 -10 25 -10 14 0 25 -4 25 -10 0 -6 63 -10 170 -10 107
0 170 -4 170 -10 0 -5 9 -10 20 -10 13 0 22 -9 26 -25 3 -14 10 -22 15 -19 5
3 9 -51 9 -125 0 -72 -4 -131 -9 -131 -5 0 -14 -13 -21 -29 -7 -19 -19 -29
-33 -29 -53 -2 -76 -5 -73 -11 2 -3 -34 -7 -80 -9 -52 -1 -84 2 -84 8 0 5 -5
10 -11 10 -5 0 -7 -4 -4 -10 8 -13 -1 -13 -50 1 -44 12 -91 52 -80 69 3 5 3
15 -1 21 -4 7 -8 32 -9 58 -3 60 -2 58 -26 64 -43 11 -59 -12 -59 -85 0 -37 5
-70 10 -73 6 -4 9 -12 8 -18 -4 -19 21 -57 37 -57 8 0 15 -4 15 -8 0 -4 25
-16 55 -27 48 -16 74 -17 216 -12 120 5 168 11 185 22 13 8 26 14 28 13 6 -4
40 43 54 75 7 17 12 79 12 163 0 110 -3 136 -15 140 -8 4 -12 10 -9 15 10 18
-16 46 -69 72 -52 27 -59 28 -198 26 -145 -1 -174 4 -217 38 -21 17 -23 27
-24 113 -1 109 5 134 40 171 20 21 36 28 76 30 79 4 198 3 226 -2 39 -7 90
-41 90 -61 0 -10 5 -18 11 -18 8 0 10 -15 5 -46 -7 -57 4 -74 50 -74 l34 0 0
75 c0 41 -4 75 -9 75 -5 0 -9 6 -8 13 1 33 -4 47 -18 47 -8 0 -23 9 -34 21
-16 17 -26 20 -52 14 -28 -6 -32 -5 -22 6 10 12 -13 15 -149 17 -89 2 -165 5
-169 8 -4 2 -10 0 -14 -6z"/>
<path d="M8762 1981 c-18 -9 -29 -21 -25 -25 4 -4 0 -6 -11 -4 -11 2 -27 -8
-40 -25 -17 -23 -21 -42 -21 -105 0 -72 1 -77 23 -80 13 -2 22 2 22 10 0 10 2
10 9 -1 15 -24 33 -1 29 38 -9 70 35 129 98 134 16 1 31 5 34 9 10 13 98 -5
124 -26 22 -17 29 -34 38 -93 13 -85 0 -142 -42 -184 -42 -43 -114 -94 -126
-91 -20 4 -94 -39 -94 -55 0 -9 -6 -13 -15 -9 -8 3 -15 1 -15 -4 0 -6 -6 -10
-13 -10 -17 0 -51 -46 -65 -90 -7 -19 -12 -93 -13 -164 -1 -112 1 -131 16
-142 12 -9 74 -13 218 -14 240 -1 263 2 263 36 0 27 4 27 -96 25 -41 -1 -99 2
-127 7 -29 5 -53 6 -53 3 0 -4 -24 -7 -54 -7 -30 0 -53 4 -50 8 2 4 -3 11 -11
16 -13 7 -16 26 -16 91 0 71 4 89 27 128 14 25 39 53 55 62 16 9 29 19 29 23
0 7 118 68 132 68 15 0 47 34 41 43 -3 6 -2 7 3 4 12 -7 45 19 76 63 23 32 26
44 26 130 0 59 -5 98 -12 103 -8 6 -8 10 1 13 15 6 2 34 -36 77 -19 20 -34 27
-65 28 -35 1 -38 2 -16 9 33 11 24 12 -105 15 -89 3 -116 0 -143 -14z"/>
<path d="M9498 1993 c-16 -2 -28 -9 -28 -14 0 -5 -6 -9 -14 -9 -8 0 -18 -5
-22 -12 -5 -7 -3 -8 6 -3 9 5 11 4 6 -3 -4 -7 -13 -12 -20 -12 -8 0 -22 -12
-32 -27 -18 -26 -19 -53 -19 -391 l0 -364 28 -23 c15 -13 27 -28 27 -32 0 -21
64 -44 138 -50 112 -8 179 9 233 57 l44 39 3 340 c2 374 -5 443 -47 449 -12 2
-19 7 -16 12 3 5 -5 12 -17 16 -13 4 -26 11 -29 16 -7 10 -192 18 -241 11z
m167 -63 c3 -5 14 -10 24 -10 10 0 28 -12 42 -26 l24 -26 0 -337 c0 -371 -1
-378 -59 -399 -53 -19 -146 -22 -178 -6 -56 29 -57 42 -58 399 -1 359 -1 358
60 390 17 9 48 15 70 13 22 -1 43 1 46 5 10 10 22 9 29 -3z"/>
<path d="M10222 1993 c-12 -2 -20 -9 -17 -14 4 -5 -8 -9 -24 -9 -17 0 -31 -4
-31 -10 0 -5 -6 -10 -13 -10 -26 0 -39 -37 -49 -140 -4 -44 3 -58 30 -62 44
-6 52 0 52 46 0 70 15 99 63 120 81 35 201 13 227 -43 17 -33 16 -186 0 -206
-6 -8 -9 -19 -5 -25 3 -5 2 -10 -4 -10 -5 0 -39 -20 -75 -45 -36 -24 -77 -47
-91 -51 -14 -3 -28 -10 -31 -15 -3 -5 -20 -15 -38 -23 -37 -16 -104 -80 -117
-113 -15 -40 -15 -299 1 -318 11 -14 42 -15 239 -14 124 1 230 4 235 7 4 2 2
8 -5 13 -10 6 -11 9 -1 9 6 0 12 7 12 15 0 8 -5 15 -11 15 -5 0 -7 6 -3 13 6
9 5 9 -7 0 -17 -13 -319 -14 -319 -1 0 4 -13 8 -30 8 -34 0 -33 -5 -35 119 -1
65 2 88 14 101 9 9 30 31 47 50 31 35 56 55 84 66 38 15 80 39 80 46 0 5 8 8
18 8 22 1 65 37 58 49 -3 5 3 7 14 4 14 -4 20 0 20 11 0 9 7 19 15 22 8 4 15
14 15 24 0 11 5 22 10 25 14 9 13 208 -2 242 -15 36 -45 66 -58 58 -6 -3 -10
-1 -10 4 0 6 -9 11 -19 11 -10 0 -21 7 -25 15 -4 12 -24 15 -98 14 -51 -1
-103 -4 -116 -6z"/>
<path d="M5676 1736 c-2 -17 -5 -174 -5 -348 l-1 -318 25 -6 c57 -14 55 -25
53 353 l-3 348 -32 1 c-28 1 -32 -3 -37 -30z"/>
<path d="M6098 1748 c-9 -5 -3 -8 17 -9 37 -1 25 -5 -37 -14 -31 -4 -48 -11
-48 -20 0 -8 -8 -18 -17 -24 -16 -9 -18 -36 -21 -314 l-4 -304 29 -6 c54 -10
55 -8 51 295 l-3 278 35 29 c30 25 44 30 95 32 116 4 188 1 194 -8 3 -5 14
-12 24 -16 33 -12 38 -56 39 -325 1 -288 2 -297 55 -283 l28 7 3 245 c3 274
-2 349 -24 349 -8 0 -14 6 -12 13 4 19 -43 63 -77 72 -41 10 -311 14 -327 3z"/>
<path d="M6890 1751 c-8 -5 -18 -7 -22 -4 -10 5 -49 -18 -78 -47 -34 -34 -39
-78 -37 -310 2 -214 3 -227 25 -261 14 -24 40 -45 70 -59 43 -21 58 -22 185
-18 94 3 141 8 146 17 4 6 14 9 22 6 8 -3 22 2 31 12 43 45 53 59 54 68 0 6 5
21 10 35 6 14 9 44 6 68 -3 33 -10 46 -27 54 -37 17 -55 4 -55 -40 0 -79 -34
-141 -79 -143 l-26 -1 25 -9 c20 -7 18 -7 -10 -2 -37 6 -39 6 -137 -3 -46 -4
-67 -2 -85 10 -14 9 -27 13 -31 10 -3 -3 -15 15 -27 40 -11 25 -26 46 -33 46
-9 0 -8 3 1 9 10 6 13 49 10 194 -2 103 0 187 5 187 4 0 7 6 7 14 0 8 11 23
25 34 13 11 21 22 18 26 -6 6 122 10 221 6 27 -1 55 -7 62 -14 30 -31 54 -84
54 -121 0 -44 14 -65 42 -65 20 0 53 44 43 59 -3 6 -8 35 -10 65 -3 49 -9 60
-44 94 -29 28 -52 41 -79 45 -69 9 -267 7 -282 -2z"/>
<path d="M7604 1736 c-84 -42 -94 -79 -89 -357 3 -198 5 -218 25 -251 23 -40
41 -50 68 -42 14 5 14 4 3 -4 -12 -9 -9 -12 15 -19 30 -8 283 -10 320 -2 34 8
56 36 48 61 -6 21 -6 21 11 5 16 -16 19 -16 35 -2 9 8 17 21 18 28 6 34 4 84
-3 100 -8 19 -41 22 -65 7 -13 -9 -13 -11 0 -20 8 -5 10 -10 4 -10 -6 0 -17
-18 -24 -39 -7 -22 -23 -49 -37 -60 -20 -18 -29 -20 -66 -11 -50 11 -110 13
-104 3 3 -5 -15 -8 -39 -8 -24 0 -44 2 -44 6 0 4 -11 10 -25 13 -14 4 -25 11
-25 17 0 6 -4 8 -9 5 -15 -10 -22 87 -21 286 l2 192 41 33 42 34 120 -6 c115
-6 121 -8 146 -35 19 -20 26 -39 27 -71 1 -24 4 -60 7 -80 8 -58 -8 -64 -189
-73 -55 -3 -70 -7 -72 -20 -1 -10 5 -16 19 -17 21 0 21 -1 3 -8 -40 -16 6 -22
149 -20 116 1 147 5 157 17 9 11 12 51 11 137 -3 130 -13 175 -38 175 -9 0
-14 4 -11 9 6 8 -43 36 -58 32 -4 -1 -13 2 -20 7 -6 5 -72 10 -146 11 -125 1
-139 0 -186 -23z"/>
</g>
</svg>
